<svg width="1024" height="1024" xmlns="http://www.w3.org/2000/svg"><g><circle cx="510.987" cy="512.5" fill="#9c9c9c" r="502.5"/><path d="M270.622 953.415c.33-27.52 18.6-48.188 45.146-52.558 25.758-4.241 52.808 13.814 58.397 40.944 3.765 18.278-1.28 34.385-14.47 48.119-8.743-2.456-17.477-4.356-25.545-7.812-21.266-9.108-42.243-18.891-63.528-28.693zM618.051 22.134c1.075 5.33 2.1 10.545 2.384 15.8 1.09 20.205-20.485 38.008-41.678 33.294-25.902-5.762-36.358-37.653-18.384-57.996 16.992 2.143 33.845 4.57 50.684 7.088 2.237.335 4.404 1.134 6.994 1.814z" fill="#919191"/><path d="M329.594 649.052c8.966-4.63 17.98-9.168 26.84-13.991 1.25-.682 2.378-2.71 2.49-4.194 1.047-13.938 1.36-27.947 2.86-41.83 2.298-21.288 5.048-42.54 8.174-63.722 6.898-46.747 18.204-92.508 32.6-137.463 16.15-50.438 37.422-98.51 68.984-141.463 36.518-49.7 84.108-83.511 143.948-99.535 5.764-1.544 11.566-2.95 18.112-4.547 10.105-1.187 19.438-2.356 28.794-3.28 8.349-.823 16.725-1.375 25.088-2.046 17.641-.277 35.287-.95 52.922-.729 21.798.274 43.585 1.348 65.38 1.953 7.478.208 14.967.048 22.45.053 4.598.004 7.188 1.685 6.538 6.896-.41 3.283-.141 6.652-.17 9.983-.062 6.968-.308 7.263-7.076 8.178-.062.767-.185 1.578-.186 2.389-.08 57.295-.149 114.59-.213 171.886-.001.831.08 1.663.092 3.41-.05 27.145-.093 53.375-.078 79.605.004 6.462.194 12.925.298 19.388v55.712c5.84 0 11.28-.036 16.717.007 13.673.106 27.355.382 40.336 5.412 13.214 5.12 22.07 14.36 24.126 28.655 1.554 10.804 2.338 21.753 2.836 32.666 1.114 24.44 2.448 48.896 2.533 73.35.073 20.943-1.285 41.901-2.36 62.835-.665 12.933-1.634 25.873-3.14 38.731-.92 7.856-2.976 15.596-4.834 23.312-.523 2.175-1.654 4.779-3.357 5.995-6.884 4.915-5.934 11.065-5.09 18.432 3.383 29.504-12.986 56.624-40.107 68.091-25.582 10.817-56.648 3.456-75.443-18.316-10.257-12.074-15.054-25.701-16.46-41.048-5.58 8.41-13.483 9.026-22.25 8.988-54.491-.237-108.984-.122-163.477-.109-1.992 0-3.984.161-5.975.247-15.482-.094-31.003-.899-46.434-.055-12.212.669-20.743-4.212-27.7-13.347-.777-1.02-1.22-2.295-2.398-3.05-3.996 12.768-8.96 24-16.503 34.097-38.515 51.562-118.854 44.258-147.256-13.532-1.632-3.322-3.382-4.59-7.111-4.49-10.288.276-20.587.096-31.412.096 0 3.567-.194 6.701.05 9.801.277 3.505-1.025 4.6-4.536 4.567-15.989-.148-31.98-.042-47.97-.04-24.985.005-49.975.24-74.952-.212-4.69-.085-9.432-2.686-13.973-4.556-7.129-2.937-14.107-6.24-21.148-9.388l.32-1.671h131.179c0-43.058 0-85.153.019-128.174-.041-25.948-.102-50.972-.162-75.995.058-19.327.067-38.654.25-57.98.018-1.882.92-5.26 1.745-5.367 3.365-.437 6.896-.066 10.272.533.509.09.733 2.968.735 4.557.04 39.161.03 78.322.03 117.483 0 17.665-.008 35.329.016 52.993.002 1.643.219 3.286.335 4.929l1.843-.021c.126-1.777.36-3.553.361-5.33.02-57.492.084-114.984 0-172.476-.112-76.296-.342-152.591-.526-228.887-.003-1.165-.06-2.33-.078-4.408.035-46.04.128-91.167-.026-136.294-.016-4.873 1.43-6.242 6.219-6.126 12.815.312 25.649.347 38.461-.01 5.21-.146 6.388 1.654 6.372 6.579-.165 49.457-.104 98.915-.09 148.373 0 2.158.148 4.316.227 6.474-.08 1.324-.228 2.649-.228 3.974-.003 107.353.005 214.706.03 322.88.725.604 1.431.388 2.137.172M786.28 433.607l-.481.315c.247 0 .494-.001.388.762 2.354 11.465 4.709 22.93 6.957 35.318v25.184c8.769 1.893 9.546 1.36 9.602-6.306.057-7.99.03-15.98.318-24.731.032-48.61.065-97.22.08-145.828 0-.816-.238-1.63-.107-3.328V163.12c-1.829-.082-2.79-.16-3.751-.163-34.439-.084-68.877-.17-103.316-.215-2.148-.003-4.295.33-7.346.333-5.301.35-10.643.399-15.895 1.108-11.804 1.593-23.563 3.514-36.172 5.254-3.04.853-6.063 1.764-9.12 2.55-52.847 13.598-94.206 44.18-128.215 85.993-18.011 22.144-31.388 46.97-43.892 72.37-6.378 12.955-13.445 25.723-18.27 39.264-13.78 38.679-23.775 78.477-32.676 118.54-1.82 8.185-3.386 16.426-4.987 24.24h16.01l3.697-6.315-10.12 1.28-1.149-2.26 7.228-5.07c-2.195-1.938-3.962-3.235-5.355-4.855-.585-.68-.708-2.157-.397-3.049.175-.505 1.985-1.062 2.492-.73 3.311 2.166 5.92.256 8.754-1.072 8.07-3.782 16.455-3.723 23.99.575 6.389 3.644 11.84 8.914 17.776 13.372 3.686 2.768 7.158 6.32 11.337 7.82 7.097 2.551 14.629 4 22.063 5.486 16.919 3.381 33.695 7.84 51.26 6.591 2.918-.207 3.943-1.15 4.913-3.557 6.556-16.29 13.273-32.515 19.828-48.805.632-1.57.819-3.466.691-5.172-.76-10.178-6.262-18.482-11.156-26.94-6.56-11.338-16.144-19.355-28.42-23.968-1.42-.533-3.74-.427-4.91.408-11.219 8-23.903 12.098-37.227 14.762-22.65 4.527-40.006-3.987-54.175-21.928 2.545-2.294 4.891-4.926 7.716-6.86 8.89-6.084 17.864-12.06 26.995-17.777 6.001-3.757 8.197-8.829 8.216-15.83.058-21.334 5.136-40.817 22.13-55.538 1.102-.954 1.762-3.34 1.45-4.809-.606-2.848-1.76-5.683-3.207-8.228-3.33-5.86-6.972-11.542-11-18.135 2.472-.958 4.742-2.356 7.158-2.685 11.918-1.621 20.601 5.005 28.764 12.204 2.716 2.395 4.398 2.405 7.232.564 4.73-3.072 9.691-5.823 14.725-8.372 1.504-.762 3.577-.402 5.388-.557.114 1.944.347 3.89.293 5.828-.028.995-.568 1.975-1.054 3.53 21.744-3.291 37.701-17.357 56.253-26.257l3.586 3.852-3.803 5.15c27.339-7.435 64.798-.794 87.568 10.803 13.452 6.851 26.378 14.735 39.905 22.713 10.432 6.78 19.738 14.627 25.415 26.08 1.748 3.527 4.046 6.81 2.418 11.622l-17.107-10.968-.699 1.124c27.312 28.818 41.198 64.058 50.295 101.588l-1.49.87c-2.4-1.618-4.8-3.237-7.394-5.273m-351.608 79.536c-4.985-2.302-7.271.04-8.253 4.699 8.384 6.288 9.764 9.417 6.453 18.102-8.392 22.01-17.02 43.932-25.691 65.834-3.036 7.669-6.473 15.18-9.746 22.808 55.954-2.711 100.338 16.223 129.117 66.504.04-3.628-.502-6.604-1.841-9.163-12.444-23.784-31.426-40.29-56.184-50.462-1.717-.705-3.475-3.565-3.593-5.521-.568-9.36 5.779-17.533 16.763-21.668 9.32-3.507 18.73-6.824 28.25-9.736 16.785-5.135 33.752-9.722 51.409-10.465 9.924-.418 19.882-.033 29.825-.02 2.612.003 5.33.567 6.73-2.772 6.872-16.411 8.903-33.644 9.594-52.497-1.435 1.603-1.927 2.187-2.454 2.736-11.285 11.748-22.489 23.576-33.923 35.178-2.685 2.724-6.217 4.713-10.382 3.123-13.161-5.025-26.184-10.436-39.454-15.154-16.545-5.882-33.12-11.805-50.007-16.554-8.633-2.428-16.193-5.256-21.863-12.539-3.814-4.898-7.309-10.474-14.75-12.433m232.401 187.61c18.548-1 37.198-1.108 55.62-3.21 27.127-3.096 53.046-11.39 78.567-20.994 14.014-5.274 28.083-10.815 42.597-14.248 19.88-4.703 40.175-8.715 60.399-.406 2.025.832 4.772-.091 7.183-.2-2.108-1.903-3.972-5.006-6.367-5.492-8.05-1.63-16.265-2.982-24.456-3.257-21.972-.738-43.013 4.476-63.615 11.525-20.51 7.018-40.65 15.242-61.421 21.34-26.354 7.737-53.82 8.999-81.097 9.866-25.918.825-51.88.397-77.822.266-17.46-.088-34.916-.672-52.376-.892-2.595-.033-5.2.714-7.801 1.1l-.03 1.738c1.46.424 2.902 1.122 4.385 1.226 8.708.613 17.42 1.334 26.143 1.546 10.954.266 21.92.082 32.88.084 22.082.006 44.162.007 67.211.008m61.958-202.077c16.672-1.343 33.41-2.044 50.035-4.776-1.662-1.275-3.316-1.804-4.978-1.828-5.498-.078-11-.036-16.497.072-26.224.517-52.522.111-77.632 9.856-18.685 7.25-34.718 18.202-47.382 33.613-12.48 15.187-18.704 33.505-23.001 52.32-7.47 32.713-9.73 66.12-11.876 99.502-.097 1.503 1.092 3.089 1.683 4.636l1.458-.356c.312-1.408.778-2.801.913-4.226.901-9.538 1.42-19.124 2.647-28.618 3.113-24.079 5.063-48.293 10.963-72.01 6.536-26.273 18.295-49.164 41.068-64.478 11.461-7.707 24.231-14.155 37.286-18.593 10.793-3.669 22.874-3.55 35.313-5.114m116.68 77.428c5.323 8.778 14.127 12.12 23.292 14.854 11.238 3.351 23.05 5.316 32.326 13.376 2.355 2.046 4.588 4.234 7.85 7.26-4.186-10.914-11.164-16.796-20.83-20.022-10.494-3.502-21.1-6.819-31.23-11.202-4.584-1.983-8.138-6.349-13.082-10.389.601 2.46.97 3.966 1.673 6.123m1.331-35.21c-6.56 5.714-8.595 17.852-3.866 24.973.478-4.373.745-8.428 1.396-12.42 1.255-7.694 3.692-10.08 11.238-10.773 5.272-.483 10.681.01 15.856-.909 6.408-1.138 12.817-2.826 18.864-5.2 2.895-1.135 4.956-4.396 7.395-6.694-1.486-.982-2.083-1.083-2.412-.832-8.771 6.67-18.83 8.016-29.535 8.137-6.13.07-12.237 2.097-18.936 3.717M465.615 783.671c.5-1.541 1.611-3.193 1.358-4.598-.374-2.07 1.898-5.534-2.148-6.055-3.594-.462-3.21 2.426-3.298 4.737-.018.489-.1 1.01-.297 1.452-2.842 6.379-5.214 13.036-8.709 19.038-3.517 6.04-3.91 6.967 2.178 10.295 3.575-8.09 7.11-16.087 10.916-24.869m-106.569 6.982c-1.285-4.873-2.58-9.744-3.85-14.62-.828-3.177-2.725-3.73-5.82-2.341.925 12.917 5.832 24.11 13.4 34.424 4.28-1.184 5.082-3.373 2.793-6.878-2.127-3.255-4.141-6.584-6.523-10.585m53.745-76.612c1.053.33 2.084.797 3.163.968 8.957 1.427 16.925 5.248 24.079 10.594 4.325 3.232 4.689 3.426 7.319-1.943-8.488-7.482-18.549-11.611-29.593-13.418-2.107-.345-5.84-2.016-4.968 3.8m38.148 20.638c.83 1.944 1.686 3.877 2.486 5.833 2.717 6.643 6.022 13.127 7.898 20 1.17 4.29 2.643 4.086 5.639 2.829-1.896-15.04-5.2-23.33-13.11-32.493-.968 1.088-1.882 2.114-2.913 3.831m-61.655-16.634c3.608-1.007 7.162-2.442 10.838-2.904 3.882-.488 3.631-2.324 2.754-5.241-11.591.64-21.78 4.606-30.938 11.212-1.118.807-1.154 3.115-1.692 4.728 1.767.142 3.894.988 5.233.3 4.509-2.317 8.737-5.179 13.805-8.095m1.018 107.618l12.57 2.463c1.412-4.6-.302-5.603-3.587-6.08-8.072-1.17-15.5-4.092-21.844-9.386-3.253-2.715-5.246-1.29-7.097 2.111 1.327 1.169 2.394 2.533 3.791 3.263 5.059 2.647 10.229 5.08 16.167 7.63m405.029-63.673c-1.596.796-4.086 1.198-4.638 2.453-2.962 6.733-5.892 13.548-7.938 20.595-1.479 5.094-.212 5.761 3.535 4.65 3.684-8.164 6.975-15.136 9.92-22.251.585-1.417-.151-3.381-.88-5.447m-363.86 61.545l15.225-8.252c-2.323-3.185-3.82-5.876-6.868-3.193-6.638 5.845-14.493 8.686-23.04 10.057-3.078.493-5.407 1.527-3.332 6.585 5.84-1.664 11.564-3.294 18.014-5.197m-79.967-71.824l-2.42 11.93c3.937.815 5.636.647 6.332-3.563.92-5.561 3.231-10.93 5.283-16.25.99-2.564 3.133-4.7 4.013-7.283.462-1.354-.674-3.253-1.088-4.906-1.324.818-3.246 1.322-3.871 2.51-2.89 5.486-5.418 11.162-8.25 17.562m470.948-7.123c-7.773 1.308-15.001 3.994-21.106 9.06-.937.777-.762 2.894-1.1 4.392 1.524.222 3.335 1.09 4.527.56 7.177-3.182 14.211-6.684 21.992-10.414-.032-1.178 1.632-4.731-4.313-3.598m-28.353 69.155l-6.765-16.895h-4.898c.69 10.667 4.855 19.369 11.415 27.08 4.96-2.731 4.96-2.731.248-10.185m42.533-63.43c6.384 2.636 12.732 5.369 19.182 7.832 1.471.562 3.91.898 4.837.1 1.956-1.685.66-3.17-1.202-4.678-6.52-5.276-14.202-7.59-22.183-9.13-1.025-.198-3.376 1.213-3.327 1.698.143 1.408 1.193 2.725 2.693 4.178m-20.76 87.872l10.411 2.216 1.393-1.51c-1.064-1.54-1.795-3.88-3.248-4.485-7.119-2.959-14.43-5.456-22.475-8.41-2.975 2.101-3.209 3.357.775 5.812 3.92 2.414 8.214 4.22 13.145 6.377m57.218-68.298c-1.387-2.233-2.574-4.637-4.263-6.613-.637-.745-2.84-1.077-3.59-.548-.795.561-1.33 2.635-.916 3.588 3.317 7.643 6.884 15.177 10.375 22.745 1.22.899 4.448 1.742 3.496-2.447-1.235-5.43-3.155-10.705-5.101-16.725m-16.935 56.344l-22.674 10.411c-.345 2.402 1.517 4.409 4.905 3.15 7.054-2.62 13.895-5.834 20.714-9.04.837-.393.998-2.224 1.472-3.389-1.28-.516-2.56-1.032-4.417-1.132m16.302-26.687c-2.69 6.172-5.47 12.307-7.99 18.547-.48 1.192.065 2.798.137 4.213 1.245-.152 3.047.173 3.65-.53 6.064-7.083 9.1-15.388 9.83-26.51-2.628 1.673-4.07 2.592-5.627 4.28M501.595 349.438c-4.26 4.12-7.274 8.805-6.525 15.577 4.123-2.392 8.026-5.01 11.25-8.294 1.6-1.63 1.953-4.483 2.87-6.783-2.32-.291-4.64-.582-7.595-.5l-172 299.614z" fill="#010101"/><path d="M328.112 322.023c-.536-2.155-.684-4.313-.685-6.47-.013-49.459-.074-98.917.09-148.374.017-4.925-1.161-6.725-6.37-6.58-12.813.358-25.647.323-38.462.011-4.79-.116-6.235 1.253-6.219 6.126.154 45.127.061 90.255-.085 135.839-6.014-4.026-12.469-7.939-17.678-13.107-11.725-11.633-20.123-25.664-25.204-41.329-10.026-30.907-7.337-60.747 8.957-89.132 15.368-26.769 38.217-43.891 67.943-51.355 34.57-8.68 66.541-1.489 94.158 20.424 22.572 17.909 36.597 41.644 40.053 71.041 4.537 38.587-7.845 70.879-36.498 96.43-19.812 17.668-43.61 26.759-70.547 26.464-2.998-.033-5.997.005-9.453.012zM571.48 803.378c2.007-.51 4-.671 5.99-.672 54.494-.013 108.987-.128 163.479.11 8.766.037 16.669-.579 22.249-8.989 1.406 15.347 6.203 28.974 16.194 40.85-3.066 8.306-5.718 16.53-9.464 24.22-13.564 27.85-35.704 46.234-65.31 54.299-34.372 9.364-66.34 3.292-94.676-19.171-18.072-14.327-29.977-32.802-35.67-54.91-2.94-11.422-5.488-23.262-2.792-35.737zM261.16 596.977c.41 25.05.47 50.074.44 75.558-5.048 3.963-9.936 7.57-14.976 10.948-16.389 10.985-44.155 9.868-60.035-1.551-17.573-12.637-25.97-29.35-24.998-50.582 1.068-23.32 17.562-44.196 40.03-50.344 21.77-5.956 40.798-.867 57.099 14.68.575.55 1.388.848 2.44 1.29zM994.428 530.751c-5.863 19.129-27.723 30.688-48.496 22.666-16.723-6.458-27.108-26.894-21.624-44.327 6.744-21.436 27.227-29.966 44.685-24.945 21.346 6.139 31.72 25.679 25.435 46.606zM121.439 419.271c6.73 16.29-3.146 35.606-23.518 37.388-14.302 1.25-26.708-9.024-28.326-24.294-1.833-17.3 9.73-28.806 26.313-30.284 10.045-.896 20.475 6.273 25.531 17.19zM827.787 439.953c-.45-6.423-.64-12.886-.644-19.348-.015-26.23.027-52.46.174-79.143 2.602 2.475 5.697 5.078 7.448 8.39 8.717 16.49 11.435 34.008 8.946 52.57-1.65 12.294-5.907 23.408-12.38 33.809-.85 1.363-2.122 2.462-3.544 3.722z" fill="#919191"/><path d="M687.456 136.629c-8.335 1.023-16.711 1.575-25.06 2.399-9.356.923-18.689 2.092-28.467 3.078.618-7.404 5.265-12.287 11.095-16.012 15.032-9.605 34.966-4.513 42.432 10.535z" fill="#8e8e8e"/><path d="M919.425 276.574c.132 10.76-6.794 17.191-15.13 14.503-5.742-1.851-9.172-6.684-8.803-12.403.342-5.289 4.937-10.474 10.246-11.564 4.88-1 10.411 2.082 12.892 7.2.29.597.502 1.232.795 2.264zM329.252 649.025c-.364.243-1.07.46-1.746.32.487-.351.945-.35 1.746-.32z" fill="#919191"/><path d="M734.66 308.285c23.517-7.59 45.982-4.148 67.813 7.541.433.864.67 1.68.67 2.495-.014 48.609-.047 97.218-.602 146.25-3.446 1.785-6.368 3.146-9.29 4.507-2.355-11.465-4.71-22.93-6.903-34.75.16-.355.127-.303.127-.303l7.199 4.856 1.49-.871c-9.097-37.53-22.983-72.77-50.295-101.588l.7-1.124 17.106 10.968c1.628-4.812-.67-8.096-2.418-11.622-5.677-11.453-14.983-19.3-25.598-26.36z" fill="#8d8d8d"/><path d="M689.075 163.162c-1.801 10.305-13.27 17.359-21.416 18.706-12.157 2.01-22.55-1.32-30.168-12.024 11.675-2.146 23.434-4.067 35.238-5.66 5.252-.71 10.594-.759 16.347-1.022z" fill="#8f8f8f"/><path d="M1042.55 604.5c-.536-1.832-.904-3.338-1.506-5.798 4.945 4.04 8.498 8.405 13.082 10.389 10.13 4.383 20.736 7.7 31.231 11.202 9.665 3.226 16.643 9.108 20.829 20.021-3.262-3.025-5.494-5.213-7.85-7.26-9.277-8.06-21.087-10.024-32.326-13.375-9.165-2.734-17.969-6.077-23.46-15.18z" fill="#9b9b9b"/><path d="M-54.189 995.524c-3.67 8.39-7.205 16.387-10.78 24.476-6.088-3.328-5.695-4.255-2.178-10.295 3.495-6.002 5.866-12.658 8.708-19.038.197-.442.279-.963.297-1.451.088-2.312-.296-5.2 3.298-4.737 4.046.52 1.775 3.985 2.148 6.054.254 1.406-.857 3.057-1.493 4.991z" fill="#999"/><path d="M-48.721 934.61c2.222 3.648 4.236 6.977 6.363 10.233 2.29 3.504 1.488 5.693-2.793 6.878-7.568-10.315-12.474-21.507-13.4-34.425 3.095-1.388 4.992-.835 5.82 2.34 1.27 4.878 2.566 9.748 4.01 14.973z" fill="#9b9b9b"/><path d="M-67.324 791.328c.972-1.372 1.885-2.398 2.854-3.486 7.91 9.162 11.214 17.453 13.11 32.493-2.996 1.257-4.47 1.462-5.64-2.828-1.875-6.874-5.18-13.358-7.897-20-.8-1.957-1.656-3.89-2.427-6.18zM-38.672 986.304c-5.534-2.531-10.704-4.965-15.763-7.611-1.397-.73-2.463-2.094-3.79-3.263 1.85-3.401 3.843-4.826 7.097-2.111 6.344 5.293 13.771 8.216 21.844 9.386 3.284.477 4.998 1.48 3.587 6.08-4.104-.804-8.337-1.634-12.975-2.48z" fill="#999"/><path d="M-53.11 983.434c-6.088 1.766-11.811 3.396-17.651 5.06-2.075-5.058.254-6.092 3.332-6.586 8.546-1.37 16.402-4.211 23.04-10.056 3.048-2.683 4.545.008 6.868 3.193a1958.394 1958.394 0 01-15.59 8.389zM-72.494 889.985c2.745-6.004 5.274-11.68 8.163-17.167.625-1.187 2.547-1.69 3.871-2.509.415 1.653 1.55 3.552 1.089 4.906-.881 2.583-3.024 4.72-4.014 7.284-2.052 5.32-4.363 10.688-5.282 16.249-.697 4.21-2.395 4.378-6.333 3.562.82-4.045 1.62-7.987 2.506-12.325z" fill="#9a9a9a"/><path d="M786.524 433.947a6.505 6.505 0 00-.725-.025c.16-.105.32-.21.578-.106.098.209.132.157.147.13z" fill="#8d8d8d"/></g></svg>